<svg xmlns="http://www.w3.org/2000/svg" xmlns:xlink="http://www.w3.org/1999/xlink" width="80" zoomAndPan="magnify" viewBox="0 0 60 3" height="4" preserveAspectRatio="xMidYMid meet" version="1.0"><defs><g/><clipPath id="77b75e213e"><path d="M 0.046875 0.0078125 L 59.953125 0.0078125 L 59.953125 2.925781 L 0.046875 2.925781 Z M 0.046875 0.0078125 " clip-rule="nonzero"/></clipPath><clipPath id="d1a8bdd338"><path d="M 52 0.519531 L 54 0.519531 L 54 2.269531 L 52 2.269531 Z M 52 0.519531 " clip-rule="nonzero"/></clipPath><clipPath id="fe0831c87c"><path d="M 54 0.519531 L 56 0.519531 L 56 2 L 54 2 Z M 54 0.519531 " clip-rule="nonzero"/></clipPath><clipPath id="10ed9f39fe"><path d="M 57 0.519531 L 58.792969 0.519531 L 58.792969 2.269531 L 57 2.269531 Z M 57 0.519531 " clip-rule="nonzero"/></clipPath><clipPath id="06c135a6c2"><path d="M 7 0.519531 L 9 0.519531 L 9 2.269531 L 7 2.269531 Z M 7 0.519531 " clip-rule="nonzero"/></clipPath><clipPath id="e09c319d70"><path d="M 10 0.519531 L 11 0.519531 L 11 2 L 10 2 Z M 10 0.519531 " clip-rule="nonzero"/></clipPath><clipPath id="abfe53785c"><path d="M 12 0.519531 L 14 0.519531 L 14 2 L 12 2 Z M 12 0.519531 " clip-rule="nonzero"/></clipPath><clipPath id="198a1369c7"><path d="M 1.496094 1.03125 L 3 1.03125 L 3 1.90625 L 1.496094 1.90625 Z M 1.496094 1.03125 " clip-rule="nonzero"/></clipPath><clipPath id="47c3350703"><path d="M 2 1.03125 L 4 1.03125 L 4 1.90625 L 2 1.90625 Z M 2 1.03125 " clip-rule="nonzero"/></clipPath><clipPath id="917695a5f2"><path d="M 2 1.03125 L 5 1.03125 L 5 1.90625 L 2 1.90625 Z M 2 1.03125 " clip-rule="nonzero"/></clipPath><clipPath id="078703e876"><path d="M 4 1.03125 L 5.257812 1.03125 L 5.257812 1.90625 L 4 1.90625 Z M 4 1.03125 " clip-rule="nonzero"/></clipPath><clipPath id="48279071c0"><path d="M 20 0.0078125 L 22 0.0078125 L 22 2.925781 L 20 2.925781 Z M 20 0.0078125 " clip-rule="nonzero"/></clipPath><clipPath id="adc0df528d"><path d="M 21.824219 0.445312 L 38.175781 0.445312 L 38.175781 2.488281 L 21.824219 2.488281 Z M 21.824219 0.445312 " clip-rule="nonzero"/></clipPath><clipPath id="8761cedfa5"><path d="M 36.835938 1 L 37.777344 1 L 37.777344 1.976562 L 36.835938 1.976562 Z M 36.835938 1 " clip-rule="nonzero"/></clipPath><clipPath id="f942d74923"><path d="M 22 0.445312 L 24 0.445312 L 24 2.488281 L 22 2.488281 Z M 22 0.445312 " clip-rule="nonzero"/></clipPath></defs><g clip-path="url(#77b75e213e)"><path fill="#25334d" d="M 0.046875 1.175781 C 0.046875 0.769531 0.046875 0.5625 0.128906 0.40625 C 0.195312 0.269531 0.308594 0.160156 0.445312 0.0898438 C 0.597656 0.0078125 0.800781 0.0078125 1.207031 0.0078125 L 58.792969 0.0078125 C 59.199219 0.0078125 59.402344 0.0078125 59.554688 0.0898438 C 59.691406 0.160156 59.804688 0.269531 59.871094 0.40625 C 59.953125 0.5625 59.953125 0.769531 59.953125 1.175781 L 59.953125 2.925781 L 0.046875 2.925781 Z M 0.046875 1.175781 " fill-opacity="1" fill-rule="nonzero"/></g><g clip-path="url(#d1a8bdd338)"><path fill="#b7b7b7" d="M 52.71875 1.566406 C 52.75 1.566406 52.773438 1.542969 52.773438 1.511719 L 52.773438 0.902344 L 52.769531 0.8125 L 52.804688 0.859375 L 52.890625 0.949219 C 52.898438 0.960938 52.914062 0.964844 52.925781 0.964844 C 52.953125 0.964844 52.976562 0.945312 52.976562 0.917969 C 52.976562 0.902344 52.972656 0.890625 52.960938 0.878906 L 52.761719 0.683594 C 52.746094 0.671875 52.730469 0.664062 52.71875 0.664062 C 52.703125 0.664062 52.6875 0.671875 52.675781 0.683594 L 52.472656 0.878906 C 52.464844 0.890625 52.457031 0.902344 52.457031 0.917969 C 52.457031 0.945312 52.480469 0.964844 52.507812 0.964844 C 52.519531 0.964844 52.535156 0.960938 52.542969 0.949219 L 52.628906 0.859375 L 52.664062 0.8125 L 52.660156 0.902344 L 52.660156 1.511719 C 52.660156 1.542969 52.6875 1.566406 52.71875 1.566406 Z M 52.371094 2.050781 L 53.0625 2.050781 C 53.191406 2.050781 53.257812 1.984375 53.257812 1.855469 L 53.257812 1.257812 C 53.257812 1.128906 53.191406 1.0625 53.0625 1.0625 L 52.902344 1.0625 L 52.902344 1.183594 L 53.054688 1.183594 C 53.109375 1.183594 53.140625 1.210938 53.140625 1.269531 L 53.140625 1.84375 C 53.140625 1.902344 53.109375 1.929688 53.054688 1.929688 L 52.378906 1.929688 C 52.324219 1.929688 52.292969 1.902344 52.292969 1.84375 L 52.292969 1.269531 C 52.292969 1.210938 52.324219 1.183594 52.378906 1.183594 L 52.535156 1.183594 L 52.535156 1.0625 L 52.371094 1.0625 C 52.242188 1.0625 52.175781 1.128906 52.175781 1.257812 L 52.175781 1.855469 C 52.175781 1.984375 52.242188 2.050781 52.371094 2.050781 Z M 52.371094 2.050781 " fill-opacity="1" fill-rule="nonzero"/></g><g clip-path="url(#fe0831c87c)"><path fill="#b7b7b7" d="M 55.25 1.90625 C 55.289062 1.90625 55.316406 1.875 55.316406 1.839844 L 55.316406 1.464844 L 55.6875 1.464844 C 55.722656 1.464844 55.753906 1.433594 55.753906 1.394531 C 55.753906 1.359375 55.722656 1.328125 55.6875 1.328125 L 55.316406 1.328125 L 55.316406 0.949219 C 55.316406 0.914062 55.289062 0.882812 55.25 0.882812 C 55.210938 0.882812 55.179688 0.914062 55.179688 0.949219 L 55.179688 1.328125 L 54.8125 1.328125 C 54.773438 1.328125 54.742188 1.359375 54.742188 1.394531 C 54.742188 1.433594 54.773438 1.464844 54.8125 1.464844 L 55.179688 1.464844 L 55.179688 1.839844 C 55.179688 1.875 55.210938 1.90625 55.25 1.90625 Z M 55.25 1.90625 " fill-opacity="1" fill-rule="nonzero"/></g><g clip-path="url(#10ed9f39fe)"><path fill="#b7b7b7" d="M 57.472656 1.761719 L 57.574219 1.761719 L 57.574219 1.851562 C 57.574219 1.984375 57.640625 2.050781 57.773438 2.050781 L 58.378906 2.050781 C 58.507812 2.050781 58.578125 1.984375 58.578125 1.851562 L 58.578125 1.234375 C 58.578125 1.105469 58.507812 1.039062 58.378906 1.039062 L 58.277344 1.039062 L 58.277344 0.949219 C 58.277344 0.820312 58.210938 0.75 58.082031 0.75 L 57.472656 0.75 C 57.34375 0.75 57.273438 0.820312 57.273438 0.949219 L 57.273438 1.566406 C 57.273438 1.695312 57.34375 1.761719 57.472656 1.761719 Z M 57.480469 1.640625 C 57.425781 1.640625 57.394531 1.613281 57.394531 1.554688 L 57.394531 0.960938 C 57.394531 0.898438 57.425781 0.871094 57.480469 0.871094 L 58.074219 0.871094 C 58.128906 0.871094 58.160156 0.898438 58.160156 0.960938 L 58.160156 1.039062 L 57.773438 1.039062 C 57.640625 1.039062 57.574219 1.105469 57.574219 1.234375 L 57.574219 1.640625 Z M 57.777344 1.929688 C 57.722656 1.929688 57.695312 1.898438 57.695312 1.84375 L 57.695312 1.246094 C 57.695312 1.1875 57.722656 1.160156 57.777344 1.160156 L 58.371094 1.160156 C 58.425781 1.160156 58.457031 1.1875 58.457031 1.246094 L 58.457031 1.84375 C 58.457031 1.898438 58.425781 1.929688 58.371094 1.929688 Z M 57.777344 1.929688 " fill-opacity="1" fill-rule="nonzero"/></g><g clip-path="url(#06c135a6c2)"><path fill="#b7b7b7" d="M 7.335938 2.015625 L 8.363281 2.015625 C 8.492188 2.015625 8.5625 1.949219 8.5625 1.816406 L 8.5625 1.082031 C 8.5625 0.953125 8.492188 0.882812 8.363281 0.882812 L 7.335938 0.882812 C 7.207031 0.882812 7.136719 0.953125 7.136719 1.082031 L 7.136719 1.816406 C 7.136719 1.949219 7.207031 2.015625 7.335938 2.015625 Z M 7.34375 1.894531 C 7.289062 1.894531 7.257812 1.867188 7.257812 1.808594 L 7.257812 1.09375 C 7.257812 1.035156 7.289062 1.003906 7.34375 1.003906 L 7.617188 1.003906 L 7.617188 1.894531 Z M 8.355469 1.003906 C 8.410156 1.003906 8.441406 1.035156 8.441406 1.09375 L 8.441406 1.808594 C 8.441406 1.867188 8.410156 1.894531 8.355469 1.894531 L 7.730469 1.894531 L 7.730469 1.003906 Z M 7.5 1.226562 C 7.519531 1.226562 7.539062 1.207031 7.539062 1.1875 C 7.539062 1.167969 7.519531 1.148438 7.5 1.148438 L 7.375 1.148438 C 7.355469 1.148438 7.335938 1.167969 7.335938 1.1875 C 7.335938 1.207031 7.355469 1.226562 7.375 1.226562 Z M 7.5 1.390625 C 7.519531 1.390625 7.539062 1.371094 7.539062 1.351562 C 7.539062 1.328125 7.519531 1.3125 7.5 1.3125 L 7.375 1.3125 C 7.355469 1.3125 7.335938 1.328125 7.335938 1.351562 C 7.335938 1.371094 7.355469 1.390625 7.375 1.390625 Z M 7.5 1.550781 C 7.519531 1.550781 7.539062 1.535156 7.539062 1.511719 C 7.539062 1.492188 7.519531 1.472656 7.5 1.472656 L 7.375 1.472656 C 7.355469 1.472656 7.335938 1.492188 7.335938 1.511719 C 7.335938 1.535156 7.355469 1.550781 7.375 1.550781 Z M 7.5 1.550781 " fill-opacity="1" fill-rule="nonzero"/></g><g clip-path="url(#e09c319d70)"><path fill="#b7b7b7" d="M 10.855469 1.910156 L 10.417969 1.476562 C 10.402344 1.464844 10.394531 1.445312 10.394531 1.425781 C 10.394531 1.40625 10.402344 1.386719 10.417969 1.375 L 10.859375 0.941406 C 10.871094 0.925781 10.886719 0.921875 10.902344 0.921875 C 10.941406 0.921875 10.972656 0.949219 10.972656 0.988281 C 10.972656 1.007812 10.964844 1.023438 10.949219 1.035156 L 10.554688 1.425781 L 10.949219 1.816406 C 10.964844 1.828125 10.972656 1.84375 10.972656 1.863281 C 10.972656 1.902344 10.941406 1.929688 10.902344 1.929688 C 10.886719 1.929688 10.871094 1.925781 10.855469 1.910156 Z M 10.855469 1.910156 " fill-opacity="1" fill-rule="nonzero"/></g><g clip-path="url(#abfe53785c)"><path fill="#5a5a5a" d="M 13.03125 1.929688 C 13.046875 1.929688 13.0625 1.925781 13.078125 1.910156 L 13.515625 1.480469 C 13.53125 1.464844 13.539062 1.445312 13.539062 1.425781 C 13.539062 1.40625 13.53125 1.386719 13.515625 1.375 L 13.078125 0.941406 C 13.0625 0.925781 13.046875 0.921875 13.03125 0.921875 C 12.992188 0.921875 12.960938 0.949219 12.960938 0.988281 C 12.960938 1.007812 12.96875 1.023438 12.984375 1.035156 L 13.378906 1.425781 L 12.984375 1.816406 C 12.96875 1.828125 12.960938 1.84375 12.960938 1.863281 C 12.960938 1.902344 12.992188 1.929688 13.03125 1.929688 Z M 13.03125 1.929688 " fill-opacity="1" fill-rule="nonzero"/></g><g clip-path="url(#198a1369c7)"><path fill="#ed6a5e" d="M 2.363281 1.46875 C 2.363281 1.589844 2.320312 1.691406 2.234375 1.777344 C 2.152344 1.863281 2.050781 1.90625 1.929688 1.90625 C 1.808594 1.90625 1.707031 1.863281 1.621094 1.777344 C 1.539062 1.691406 1.496094 1.589844 1.496094 1.46875 C 1.496094 1.347656 1.539062 1.242188 1.621094 1.160156 C 1.707031 1.074219 1.808594 1.03125 1.929688 1.03125 C 2.050781 1.03125 2.152344 1.074219 2.234375 1.160156 C 2.320312 1.242188 2.363281 1.347656 2.363281 1.46875 Z M 2.363281 1.46875 " fill-opacity="1" fill-rule="nonzero"/><path stroke-linecap="butt" transform="matrix(0.0930176, 0, 0, 0.09375, 0.0483398, 0.00931677)" fill="none" stroke-linejoin="miter" d="M 24.509188 15.567288 C 24.509188 16.733955 24.08924 17.733955 23.249345 18.567289 C 22.40945 19.400622 21.401576 19.817289 20.225723 19.817289 C 19.04987 19.817289 18.041996 19.400622 17.202101 18.567289 C 16.362206 17.733955 15.942258 16.733955 15.942258 15.567288 C 15.942258 14.358955 16.362206 13.358955 17.202101 12.525622 C 18.041996 11.692288 19.04987 11.275622 20.225723 11.275622 C 21.401576 11.275622 22.40945 11.692288 23.249345 12.525622 C 24.08924 13.358955 24.509188 14.358955 24.509188 15.567288 Z M 24.509188 15.567288 " stroke="#000000" stroke-width="0.778" stroke-opacity="0.1" stroke-miterlimit="4"/></g><g clip-path="url(#47c3350703)"><path fill="#f4bd50" d="M 3.808594 1.46875 C 3.808594 1.589844 3.769531 1.691406 3.683594 1.777344 C 3.597656 1.863281 3.496094 1.90625 3.375 1.90625 C 3.257812 1.90625 3.152344 1.863281 3.070312 1.777344 C 2.984375 1.691406 2.941406 1.589844 2.941406 1.46875 C 2.941406 1.347656 2.984375 1.242188 3.070312 1.160156 C 3.152344 1.074219 3.257812 1.03125 3.375 1.03125 C 3.496094 1.03125 3.597656 1.074219 3.683594 1.160156 C 3.769531 1.242188 3.808594 1.347656 3.808594 1.46875 Z M 3.808594 1.46875 " fill-opacity="1" fill-rule="nonzero"/></g><g clip-path="url(#917695a5f2)"><path stroke-linecap="butt" transform="matrix(0.0930176, 0, 0, 0.09375, 0.0483398, 0.00931677)" fill="none" stroke-linejoin="miter" d="M 40.047246 15.567288 C 40.047246 16.733955 39.627298 17.733955 38.787403 18.567289 C 37.947508 19.400622 36.939634 19.817289 35.763781 19.817289 C 34.587928 19.817289 33.580054 19.400622 32.740159 18.567289 C 31.900264 17.733955 31.480316 16.733955 31.480316 15.567288 C 31.480316 14.358955 31.900264 13.358955 32.740159 12.525622 C 33.580054 11.692288 34.587928 11.275622 35.763781 11.275622 C 36.939634 11.275622 37.947508 11.692288 38.787403 12.525622 C 39.627298 13.358955 40.047246 14.358955 40.047246 15.567288 Z M 40.047246 15.567288 " stroke="#000000" stroke-width="0.778" stroke-opacity="0.1" stroke-miterlimit="4"/></g><g clip-path="url(#078703e876)"><path fill="#61c454" d="M 5.257812 1.46875 C 5.257812 1.589844 5.214844 1.691406 5.128906 1.777344 C 5.046875 1.863281 4.941406 1.90625 4.824219 1.90625 C 4.703125 1.90625 4.601562 1.863281 4.515625 1.777344 C 4.429688 1.691406 4.390625 1.589844 4.390625 1.46875 C 4.390625 1.347656 4.429688 1.242188 4.515625 1.160156 C 4.601562 1.074219 4.703125 1.03125 4.824219 1.03125 C 4.941406 1.03125 5.046875 1.074219 5.128906 1.160156 C 5.214844 1.242188 5.257812 1.347656 5.257812 1.46875 Z M 5.257812 1.46875 " fill-opacity="1" fill-rule="nonzero"/><path stroke-linecap="butt" transform="matrix(0.0930176, 0, 0, 0.09375, 0.0483398, 0.00931677)" fill="none" stroke-linejoin="miter" d="M 55.627299 15.567288 C 55.627299 16.733955 55.207352 17.733955 54.367457 18.567289 C 53.527562 19.400622 52.519688 19.817289 51.343834 19.817289 C 50.167981 19.817289 49.160107 19.400622 48.320212 18.567289 C 47.480317 17.733955 47.06037 16.733955 47.06037 15.567288 C 47.06037 14.358955 47.480317 13.358955 48.320212 12.525622 C 49.160107 11.692288 50.167981 11.275622 51.343834 11.275622 C 52.519688 11.275622 53.527562 11.692288 54.367457 12.525622 C 55.207352 13.358955 55.627299 14.358955 55.627299 15.567288 Z M 55.627299 15.567288 " stroke="#000000" stroke-width="0.778" stroke-opacity="0.1" stroke-miterlimit="4"/></g><g clip-path="url(#48279071c0)"><path fill="#b7b7b7" d="M 20.59375 2.050781 C 20.605469 2.050781 20.621094 2.046875 20.636719 2.039062 C 20.980469 1.847656 21.101562 1.761719 21.101562 1.539062 L 21.101562 1.078125 C 21.101562 1.003906 21.074219 0.980469 21.011719 0.953125 C 20.945312 0.925781 20.722656 0.84375 20.660156 0.824219 C 20.636719 0.816406 20.617188 0.8125 20.59375 0.8125 C 20.574219 0.8125 20.550781 0.816406 20.53125 0.824219 C 20.464844 0.839844 20.242188 0.925781 20.175781 0.953125 C 20.117188 0.976562 20.089844 1.003906 20.089844 1.078125 L 20.089844 1.539062 C 20.089844 1.761719 20.207031 1.847656 20.550781 2.039062 C 20.566406 2.046875 20.585938 2.050781 20.59375 2.050781 Z M 20.628906 0.933594 C 20.707031 0.964844 20.875 1.027344 20.964844 1.058594 C 20.984375 1.066406 20.988281 1.074219 20.988281 1.097656 L 20.988281 1.515625 C 20.988281 1.695312 20.898438 1.742188 20.628906 1.90625 C 20.613281 1.917969 20.605469 1.921875 20.59375 1.921875 L 20.59375 0.929688 C 20.605469 0.929688 20.613281 0.929688 20.628906 0.933594 Z M 20.628906 0.933594 " fill-opacity="1" fill-rule="nonzero"/></g><g clip-path="url(#adc0df528d)"><path fill="#3c5175" d="M 21.824219 1.148438 C 21.824219 0.902344 21.824219 0.777344 21.871094 0.6875 C 21.914062 0.601562 21.980469 0.535156 22.0625 0.496094 C 22.15625 0.445312 22.277344 0.445312 22.519531 0.445312 L 37.480469 0.445312 C 37.722656 0.445312 37.84375 0.445312 37.9375 0.496094 C 38.019531 0.535156 38.085938 0.601562 38.128906 0.6875 C 38.175781 0.777344 38.175781 0.902344 38.175781 1.148438 L 38.175781 1.789062 C 38.175781 2.035156 38.175781 2.15625 38.128906 2.25 C 38.085938 2.332031 38.019531 2.398438 37.9375 2.441406 C 37.84375 2.488281 37.722656 2.488281 37.480469 2.488281 L 22.519531 2.488281 C 22.277344 2.488281 22.15625 2.488281 22.0625 2.441406 C 21.980469 2.398438 21.914062 2.332031 21.871094 2.25 C 21.824219 2.15625 21.824219 2.035156 21.824219 1.789062 Z M 21.824219 1.148438 " fill-opacity="1" fill-rule="nonzero"/></g><g clip-path="url(#8761cedfa5)"><path fill="#e3e3e3" d="M 37.292969 1.449219 C 37.308594 1.449219 37.316406 1.445312 37.324219 1.4375 L 37.5 1.257812 C 37.507812 1.25 37.511719 1.238281 37.511719 1.226562 C 37.511719 1.214844 37.507812 1.207031 37.5 1.195312 L 37.324219 1.019531 C 37.316406 1.011719 37.308594 1.007812 37.292969 1.007812 C 37.273438 1.007812 37.253906 1.023438 37.253906 1.046875 C 37.253906 1.058594 37.257812 1.070312 37.265625 1.078125 L 37.367188 1.175781 C 37.347656 1.175781 37.324219 1.171875 37.304688 1.171875 C 37.097656 1.171875 36.929688 1.34375 36.929688 1.554688 C 36.929688 1.765625 37.097656 1.9375 37.308594 1.9375 C 37.515625 1.9375 37.6875 1.765625 37.6875 1.554688 C 37.6875 1.527344 37.667969 1.511719 37.644531 1.511719 C 37.617188 1.511719 37.601562 1.527344 37.601562 1.554688 C 37.601562 1.71875 37.472656 1.851562 37.308594 1.851562 C 37.144531 1.851562 37.011719 1.71875 37.011719 1.554688 C 37.011719 1.386719 37.140625 1.257812 37.304688 1.257812 C 37.332031 1.257812 37.359375 1.257812 37.382812 1.261719 L 37.265625 1.378906 C 37.257812 1.386719 37.253906 1.394531 37.253906 1.40625 C 37.253906 1.429688 37.273438 1.449219 37.292969 1.449219 Z M 37.292969 1.449219 " fill-opacity="1" fill-rule="nonzero"/></g><g clip-path="url(#f942d74923)"><path fill="#ffffff" d="M 23.117188 0.960938 C 22.96875 0.960938 22.84375 1.085938 22.84375 1.234375 L 22.84375 1.398438 L 22.792969 1.398438 C 22.730469 1.398438 22.683594 1.449219 22.683594 1.507812 L 22.683594 1.945312 C 22.683594 2.007812 22.730469 2.054688 22.792969 2.054688 L 23.441406 2.054688 C 23.503906 2.054688 23.550781 2.007812 23.550781 1.945312 L 23.550781 1.507812 C 23.550781 1.449219 23.503906 1.398438 23.441406 1.398438 L 23.386719 1.398438 L 23.386719 1.234375 C 23.386719 1.085938 23.265625 0.960938 23.117188 0.960938 Z M 23.441406 1.507812 L 23.441406 1.945312 L 22.792969 1.945312 L 22.792969 1.507812 Z M 22.953125 1.398438 L 22.953125 1.234375 C 22.953125 1.144531 23.027344 1.070312 23.117188 1.070312 C 23.207031 1.070312 23.28125 1.144531 23.28125 1.234375 L 23.28125 1.398438 Z M 22.953125 1.398438 " fill-opacity="1" fill-rule="nonzero"/></g><g fill="#ffffff" fill-opacity="1"><g transform="translate(24.666666, 1.816667)"><g><path d="M 0.09375 -0.515625 L 0.1875 -0.171875 L 0.203125 -0.109375 C 0.210938 -0.117188 0.21875 -0.128906 0.21875 -0.140625 C 0.226562 -0.171875 0.234375 -0.203125 0.234375 -0.234375 L 0.3125 -0.515625 L 0.40625 -0.515625 L 0.484375 -0.21875 L 0.515625 -0.125 L 0.53125 -0.203125 L 0.625 -0.515625 L 0.71875 -0.515625 L 0.546875 0 L 0.46875 0 L 0.375 -0.3125 C 0.375 -0.332031 0.367188 -0.363281 0.359375 -0.40625 L 0.25 0 L 0.15625 0 L 0 -0.515625 Z M 0.09375 -0.515625 "/></g></g></g><g fill="#ffffff" fill-opacity="1"><g transform="translate(25.388671, 1.816667)"><g><path d="M 0.09375 -0.515625 L 0.1875 -0.171875 L 0.203125 -0.109375 C 0.210938 -0.117188 0.21875 -0.128906 0.21875 -0.140625 C 0.226562 -0.171875 0.234375 -0.203125 0.234375 -0.234375 L 0.3125 -0.515625 L 0.40625 -0.515625 L 0.484375 -0.21875 L 0.515625 -0.125 L 0.53125 -0.203125 L 0.625 -0.515625 L 0.71875 -0.515625 L 0.546875 0 L 0.46875 0 L 0.375 -0.3125 C 0.375 -0.332031 0.367188 -0.363281 0.359375 -0.40625 L 0.25 0 L 0.15625 0 L 0 -0.515625 Z M 0.09375 -0.515625 "/></g></g></g><g fill="#ffffff" fill-opacity="1"><g transform="translate(26.110676, 1.816667)"><g><path d="M 0.09375 -0.515625 L 0.1875 -0.171875 L 0.203125 -0.109375 C 0.210938 -0.117188 0.21875 -0.128906 0.21875 -0.140625 C 0.226562 -0.171875 0.234375 -0.203125 0.234375 -0.234375 L 0.3125 -0.515625 L 0.40625 -0.515625 L 0.484375 -0.21875 L 0.515625 -0.125 L 0.53125 -0.203125 L 0.625 -0.515625 L 0.71875 -0.515625 L 0.546875 0 L 0.46875 0 L 0.375 -0.3125 C 0.375 -0.332031 0.367188 -0.363281 0.359375 -0.40625 L 0.25 0 L 0.15625 0 L 0 -0.515625 Z M 0.09375 -0.515625 "/></g></g></g><g fill="#ffffff" fill-opacity="1"><g transform="translate(26.832682, 1.816667)"><g><path d="M 0.1875 0 L 0.09375 0 L 0.09375 -0.09375 L 0.1875 -0.09375 Z M 0.1875 0 "/></g></g></g><g fill="#ffffff" fill-opacity="1"><g transform="translate(27.110684, 1.816667)"><g><path d="M 0.234375 -0.53125 C 0.296875 -0.53125 0.34375 -0.515625 0.375 -0.484375 C 0.414062 -0.460938 0.4375 -0.429688 0.4375 -0.390625 L 0.359375 -0.375 C 0.347656 -0.394531 0.332031 -0.410156 0.3125 -0.421875 C 0.300781 -0.441406 0.28125 -0.453125 0.25 -0.453125 C 0.207031 -0.453125 0.175781 -0.445312 0.15625 -0.4375 C 0.132812 -0.425781 0.125 -0.410156 0.125 -0.390625 C 0.125 -0.378906 0.128906 -0.367188 0.140625 -0.359375 C 0.160156 -0.347656 0.175781 -0.335938 0.1875 -0.328125 C 0.207031 -0.328125 0.234375 -0.320312 0.265625 -0.3125 C 0.304688 -0.300781 0.335938 -0.289062 0.359375 -0.28125 C 0.390625 -0.269531 0.414062 -0.253906 0.4375 -0.234375 C 0.457031 -0.210938 0.46875 -0.1875 0.46875 -0.15625 C 0.46875 -0.125 0.457031 -0.09375 0.4375 -0.0625 C 0.414062 -0.0390625 0.390625 -0.0195312 0.359375 0 C 0.328125 0.0078125 0.296875 0.015625 0.265625 0.015625 C 0.191406 0.015625 0.132812 0 0.09375 -0.03125 C 0.0625 -0.0625 0.0390625 -0.101562 0.03125 -0.15625 L 0.125 -0.171875 C 0.125 -0.128906 0.132812 -0.0976562 0.15625 -0.078125 C 0.1875 -0.0664062 0.21875 -0.0625 0.25 -0.0625 C 0.289062 -0.0625 0.320312 -0.0664062 0.34375 -0.078125 C 0.363281 -0.0976562 0.375 -0.117188 0.375 -0.140625 C 0.375 -0.160156 0.363281 -0.175781 0.34375 -0.1875 C 0.320312 -0.195312 0.289062 -0.207031 0.25 -0.21875 C 0.207031 -0.226562 0.171875 -0.238281 0.140625 -0.25 C 0.117188 -0.257812 0.0976562 -0.273438 0.078125 -0.296875 C 0.0546875 -0.316406 0.046875 -0.34375 0.046875 -0.375 C 0.046875 -0.40625 0.0507812 -0.429688 0.0625 -0.453125 C 0.0820312 -0.472656 0.101562 -0.488281 0.125 -0.5 C 0.15625 -0.519531 0.191406 -0.53125 0.234375 -0.53125 Z M 0.234375 -0.53125 "/></g></g></g><g fill="#ffffff" fill-opacity="1"><g transform="translate(27.610688, 1.816667)"><g><path d="M 0.46875 -0.46875 L 0.1875 -0.125 C 0.175781 -0.125 0.160156 -0.113281 0.140625 -0.09375 L 0.125 -0.078125 C 0.164062 -0.078125 0.203125 -0.078125 0.234375 -0.078125 L 0.484375 -0.078125 L 0.484375 0 L 0.015625 0 L 0.015625 -0.078125 L 0.34375 -0.453125 C 0.300781 -0.441406 0.269531 -0.4375 0.25 -0.4375 L 0.046875 -0.4375 L 0.046875 -0.515625 L 0.46875 -0.515625 Z M 0.46875 -0.46875 "/></g></g></g><g fill="#ffffff" fill-opacity="1"><g transform="translate(28.110692, 1.816667)"><g><path d="M 0.28125 -0.53125 C 0.320312 -0.53125 0.351562 -0.523438 0.375 -0.515625 C 0.40625 -0.503906 0.429688 -0.492188 0.453125 -0.484375 C 0.460938 -0.460938 0.46875 -0.441406 0.46875 -0.421875 C 0.476562 -0.410156 0.484375 -0.390625 0.484375 -0.359375 L 0.484375 -0.140625 C 0.484375 -0.078125 0.492188 -0.03125 0.515625 0 L 0.421875 0 C 0.410156 -0.0195312 0.40625 -0.0390625 0.40625 -0.0625 C 0.375 -0.0390625 0.34375 -0.0195312 0.3125 0 C 0.28125 0.0078125 0.25 0.015625 0.21875 0.015625 C 0.164062 0.015625 0.117188 0.00390625 0.078125 -0.015625 C 0.046875 -0.046875 0.03125 -0.0859375 0.03125 -0.140625 C 0.03125 -0.160156 0.0351562 -0.179688 0.046875 -0.203125 C 0.0546875 -0.222656 0.0703125 -0.238281 0.09375 -0.25 C 0.113281 -0.269531 0.132812 -0.28125 0.15625 -0.28125 C 0.175781 -0.289062 0.203125 -0.296875 0.234375 -0.296875 C 0.265625 -0.296875 0.296875 -0.296875 0.328125 -0.296875 C 0.359375 -0.304688 0.382812 -0.316406 0.40625 -0.328125 L 0.40625 -0.34375 C 0.40625 -0.382812 0.394531 -0.410156 0.375 -0.421875 C 0.351562 -0.441406 0.320312 -0.453125 0.28125 -0.453125 C 0.226562 -0.453125 0.191406 -0.441406 0.171875 -0.421875 C 0.160156 -0.410156 0.148438 -0.390625 0.140625 -0.359375 L 0.046875 -0.375 C 0.0664062 -0.425781 0.09375 -0.460938 0.125 -0.484375 C 0.164062 -0.515625 0.21875 -0.53125 0.28125 -0.53125 Z M 0.28125 -0.234375 C 0.238281 -0.222656 0.207031 -0.210938 0.1875 -0.203125 C 0.175781 -0.203125 0.160156 -0.195312 0.140625 -0.1875 C 0.128906 -0.175781 0.125 -0.160156 0.125 -0.140625 C 0.125 -0.109375 0.132812 -0.0859375 0.15625 -0.078125 C 0.175781 -0.0664062 0.203125 -0.0625 0.234375 -0.0625 C 0.253906 -0.0625 0.273438 -0.0625 0.296875 -0.0625 C 0.328125 -0.0703125 0.347656 -0.0859375 0.359375 -0.109375 C 0.378906 -0.128906 0.390625 -0.144531 0.390625 -0.15625 C 0.398438 -0.175781 0.40625 -0.195312 0.40625 -0.21875 L 0.40625 -0.265625 C 0.375 -0.253906 0.332031 -0.242188 0.28125 -0.234375 Z M 0.28125 -0.234375 "/></g></g></g><g fill="#ffffff" fill-opacity="1"><g transform="translate(28.666695, 1.816667)"><g><path d="M 0.15625 -0.453125 C 0.1875 -0.503906 0.234375 -0.53125 0.296875 -0.53125 C 0.335938 -0.53125 0.375 -0.519531 0.40625 -0.5 C 0.445312 -0.476562 0.472656 -0.445312 0.484375 -0.40625 C 0.503906 -0.363281 0.515625 -0.316406 0.515625 -0.265625 C 0.515625 -0.210938 0.503906 -0.160156 0.484375 -0.109375 C 0.460938 -0.0664062 0.4375 -0.0351562 0.40625 -0.015625 C 0.375 0.00390625 0.335938 0.015625 0.296875 0.015625 C 0.253906 0.015625 0.222656 0.0078125 0.203125 0 C 0.179688 -0.0195312 0.164062 -0.0390625 0.15625 -0.0625 L 0.15625 0 L 0.0625 0 L 0.0625 -0.71875 L 0.15625 -0.71875 Z M 0.140625 -0.265625 C 0.140625 -0.234375 0.140625 -0.207031 0.140625 -0.1875 C 0.148438 -0.175781 0.15625 -0.164062 0.15625 -0.15625 C 0.175781 -0.125 0.195312 -0.0976562 0.21875 -0.078125 C 0.238281 -0.0664062 0.257812 -0.0625 0.28125 -0.0625 C 0.320312 -0.0625 0.351562 -0.078125 0.375 -0.109375 C 0.40625 -0.148438 0.421875 -0.203125 0.421875 -0.265625 C 0.421875 -0.328125 0.410156 -0.375 0.390625 -0.40625 C 0.367188 -0.4375 0.332031 -0.453125 0.28125 -0.453125 C 0.257812 -0.453125 0.238281 -0.441406 0.21875 -0.421875 C 0.195312 -0.410156 0.175781 -0.390625 0.15625 -0.359375 C 0.144531 -0.335938 0.140625 -0.304688 0.140625 -0.265625 Z M 0.140625 -0.265625 "/></g></g></g><g fill="#ffffff" fill-opacity="1"><g transform="translate(29.222699, 1.816667)"><g><path d="M 0.28125 -0.53125 C 0.320312 -0.53125 0.359375 -0.519531 0.390625 -0.5 C 0.429688 -0.488281 0.460938 -0.460938 0.484375 -0.421875 C 0.503906 -0.378906 0.515625 -0.328125 0.515625 -0.265625 C 0.515625 -0.203125 0.503906 -0.148438 0.484375 -0.109375 C 0.460938 -0.0664062 0.429688 -0.0351562 0.390625 -0.015625 C 0.359375 0.00390625 0.320312 0.015625 0.28125 0.015625 C 0.207031 0.015625 0.148438 -0.00390625 0.109375 -0.046875 C 0.0546875 -0.0976562 0.03125 -0.171875 0.03125 -0.265625 C 0.03125 -0.316406 0.0390625 -0.363281 0.0625 -0.40625 C 0.0820312 -0.445312 0.109375 -0.476562 0.140625 -0.5 C 0.179688 -0.519531 0.226562 -0.53125 0.28125 -0.53125 Z M 0.125 -0.265625 C 0.125 -0.203125 0.132812 -0.148438 0.15625 -0.109375 C 0.1875 -0.078125 0.226562 -0.0625 0.28125 -0.0625 C 0.320312 -0.0625 0.359375 -0.078125 0.390625 -0.109375 C 0.421875 -0.140625 0.4375 -0.191406 0.4375 -0.265625 C 0.4375 -0.316406 0.421875 -0.359375 0.390625 -0.390625 C 0.359375 -0.429688 0.320312 -0.453125 0.28125 -0.453125 C 0.226562 -0.453125 0.1875 -0.4375 0.15625 -0.40625 C 0.132812 -0.375 0.125 -0.328125 0.125 -0.265625 Z M 0.125 -0.265625 "/></g></g></g><g fill="#ffffff" fill-opacity="1"><g transform="translate(29.778702, 1.816667)"><g><path d="M 0.15625 0 L 0.0625 0 L 0.0625 -0.71875 L 0.15625 -0.71875 Z M 0.15625 0 "/></g></g></g><g fill="#ffffff" fill-opacity="1"><g transform="translate(30.000704, 1.816667)"><g><path d="M 0.28125 -0.53125 C 0.332031 -0.53125 0.375 -0.515625 0.40625 -0.484375 C 0.445312 -0.453125 0.472656 -0.410156 0.484375 -0.359375 L 0.390625 -0.359375 C 0.390625 -0.390625 0.378906 -0.410156 0.359375 -0.421875 C 0.335938 -0.441406 0.3125 -0.453125 0.28125 -0.453125 C 0.226562 -0.453125 0.1875 -0.4375 0.15625 -0.40625 C 0.132812 -0.375 0.125 -0.328125 0.125 -0.265625 C 0.125 -0.191406 0.132812 -0.140625 0.15625 -0.109375 C 0.1875 -0.078125 0.226562 -0.0625 0.28125 -0.0625 C 0.3125 -0.0625 0.335938 -0.0703125 0.359375 -0.09375 C 0.378906 -0.113281 0.394531 -0.144531 0.40625 -0.1875 L 0.484375 -0.171875 C 0.484375 -0.117188 0.460938 -0.0703125 0.421875 -0.03125 C 0.378906 0 0.332031 0.015625 0.28125 0.015625 C 0.195312 0.015625 0.132812 -0.0078125 0.09375 -0.0625 C 0.0507812 -0.113281 0.03125 -0.179688 0.03125 -0.265625 C 0.03125 -0.347656 0.0507812 -0.410156 0.09375 -0.453125 C 0.144531 -0.503906 0.207031 -0.53125 0.28125 -0.53125 Z M 0.28125 -0.53125 "/></g></g></g><g fill="#ffffff" fill-opacity="1"><g transform="translate(30.500708, 1.816667)"><g><path d="M 0.234375 -0.53125 C 0.296875 -0.53125 0.34375 -0.515625 0.375 -0.484375 C 0.414062 -0.460938 0.4375 -0.429688 0.4375 -0.390625 L 0.359375 -0.375 C 0.347656 -0.394531 0.332031 -0.410156 0.3125 -0.421875 C 0.300781 -0.441406 0.28125 -0.453125 0.25 -0.453125 C 0.207031 -0.453125 0.175781 -0.445312 0.15625 -0.4375 C 0.132812 -0.425781 0.125 -0.410156 0.125 -0.390625 C 0.125 -0.378906 0.128906 -0.367188 0.140625 -0.359375 C 0.160156 -0.347656 0.175781 -0.335938 0.1875 -0.328125 C 0.207031 -0.328125 0.234375 -0.320312 0.265625 -0.3125 C 0.304688 -0.300781 0.335938 -0.289062 0.359375 -0.28125 C 0.390625 -0.269531 0.414062 -0.253906 0.4375 -0.234375 C 0.457031 -0.210938 0.46875 -0.1875 0.46875 -0.15625 C 0.46875 -0.125 0.457031 -0.09375 0.4375 -0.0625 C 0.414062 -0.0390625 0.390625 -0.0195312 0.359375 0 C 0.328125 0.0078125 0.296875 0.015625 0.265625 0.015625 C 0.191406 0.015625 0.132812 0 0.09375 -0.03125 C 0.0625 -0.0625 0.0390625 -0.101562 0.03125 -0.15625 L 0.125 -0.171875 C 0.125 -0.128906 0.132812 -0.0976562 0.15625 -0.078125 C 0.1875 -0.0664062 0.21875 -0.0625 0.25 -0.0625 C 0.289062 -0.0625 0.320312 -0.0664062 0.34375 -0.078125 C 0.363281 -0.0976562 0.375 -0.117188 0.375 -0.140625 C 0.375 -0.160156 0.363281 -0.175781 0.34375 -0.1875 C 0.320312 -0.195312 0.289062 -0.207031 0.25 -0.21875 C 0.207031 -0.226562 0.171875 -0.238281 0.140625 -0.25 C 0.117188 -0.257812 0.0976562 -0.273438 0.078125 -0.296875 C 0.0546875 -0.316406 0.046875 -0.34375 0.046875 -0.375 C 0.046875 -0.40625 0.0507812 -0.429688 0.0625 -0.453125 C 0.0820312 -0.472656 0.101562 -0.488281 0.125 -0.5 C 0.15625 -0.519531 0.191406 -0.53125 0.234375 -0.53125 Z M 0.234375 -0.53125 "/></g></g></g><g fill="#ffffff" fill-opacity="1"><g transform="translate(31.000711, 1.816667)"><g><path d="M 0.3125 -0.53125 C 0.351562 -0.53125 0.382812 -0.519531 0.40625 -0.5 C 0.4375 -0.488281 0.457031 -0.472656 0.46875 -0.453125 C 0.476562 -0.429688 0.484375 -0.410156 0.484375 -0.390625 C 0.484375 -0.378906 0.484375 -0.363281 0.484375 -0.34375 L 0.484375 0 L 0.40625 0 L 0.40625 -0.3125 C 0.40625 -0.40625 0.367188 -0.453125 0.296875 -0.453125 C 0.265625 -0.453125 0.238281 -0.441406 0.21875 -0.421875 C 0.195312 -0.410156 0.179688 -0.394531 0.171875 -0.375 C 0.160156 -0.351562 0.15625 -0.328125 0.15625 -0.296875 L 0.15625 0 L 0.0625 0 L 0.0625 -0.515625 L 0.140625 -0.515625 L 0.140625 -0.4375 C 0.179688 -0.5 0.238281 -0.53125 0.3125 -0.53125 Z M 0.3125 -0.53125 "/></g></g></g><g fill="#ffffff" fill-opacity="1"><g transform="translate(31.556715, 1.816667)"><g><path d="M 0.28125 -0.53125 C 0.320312 -0.53125 0.351562 -0.523438 0.375 -0.515625 C 0.40625 -0.503906 0.429688 -0.492188 0.453125 -0.484375 C 0.460938 -0.460938 0.46875 -0.441406 0.46875 -0.421875 C 0.476562 -0.410156 0.484375 -0.390625 0.484375 -0.359375 L 0.484375 -0.140625 C 0.484375 -0.078125 0.492188 -0.03125 0.515625 0 L 0.421875 0 C 0.410156 -0.0195312 0.40625 -0.0390625 0.40625 -0.0625 C 0.375 -0.0390625 0.34375 -0.0195312 0.3125 0 C 0.28125 0.0078125 0.25 0.015625 0.21875 0.015625 C 0.164062 0.015625 0.117188 0.00390625 0.078125 -0.015625 C 0.046875 -0.046875 0.03125 -0.0859375 0.03125 -0.140625 C 0.03125 -0.160156 0.0351562 -0.179688 0.046875 -0.203125 C 0.0546875 -0.222656 0.0703125 -0.238281 0.09375 -0.25 C 0.113281 -0.269531 0.132812 -0.28125 0.15625 -0.28125 C 0.175781 -0.289062 0.203125 -0.296875 0.234375 -0.296875 C 0.265625 -0.296875 0.296875 -0.296875 0.328125 -0.296875 C 0.359375 -0.304688 0.382812 -0.316406 0.40625 -0.328125 L 0.40625 -0.34375 C 0.40625 -0.382812 0.394531 -0.410156 0.375 -0.421875 C 0.351562 -0.441406 0.320312 -0.453125 0.28125 -0.453125 C 0.226562 -0.453125 0.191406 -0.441406 0.171875 -0.421875 C 0.160156 -0.410156 0.148438 -0.390625 0.140625 -0.359375 L 0.046875 -0.375 C 0.0664062 -0.425781 0.09375 -0.460938 0.125 -0.484375 C 0.164062 -0.515625 0.21875 -0.53125 0.28125 -0.53125 Z M 0.28125 -0.234375 C 0.238281 -0.222656 0.207031 -0.210938 0.1875 -0.203125 C 0.175781 -0.203125 0.160156 -0.195312 0.140625 -0.1875 C 0.128906 -0.175781 0.125 -0.160156 0.125 -0.140625 C 0.125 -0.109375 0.132812 -0.0859375 0.15625 -0.078125 C 0.175781 -0.0664062 0.203125 -0.0625 0.234375 -0.0625 C 0.253906 -0.0625 0.273438 -0.0625 0.296875 -0.0625 C 0.328125 -0.0703125 0.347656 -0.0859375 0.359375 -0.109375 C 0.378906 -0.128906 0.390625 -0.144531 0.390625 -0.15625 C 0.398438 -0.175781 0.40625 -0.195312 0.40625 -0.21875 L 0.40625 -0.265625 C 0.375 -0.253906 0.332031 -0.242188 0.28125 -0.234375 Z M 0.28125 -0.234375 "/></g></g></g><g fill="#ffffff" fill-opacity="1"><g transform="translate(32.112719, 1.816667)"><g><path d="M 0.265625 -0.53125 C 0.316406 -0.53125 0.363281 -0.503906 0.40625 -0.453125 L 0.40625 -0.515625 L 0.484375 -0.515625 L 0.484375 -0.0625 C 0.484375 0.0078125 0.476562 0.0664062 0.46875 0.109375 C 0.445312 0.140625 0.421875 0.160156 0.390625 0.171875 C 0.359375 0.191406 0.3125 0.203125 0.25 0.203125 C 0.207031 0.203125 0.171875 0.195312 0.140625 0.1875 C 0.109375 0.175781 0.0820312 0.15625 0.0625 0.125 C 0.0507812 0.101562 0.046875 0.0820312 0.046875 0.0625 L 0.046875 0.046875 L 0.140625 0.0625 C 0.140625 0.0820312 0.148438 0.0976562 0.171875 0.109375 C 0.191406 0.128906 0.222656 0.140625 0.265625 0.140625 C 0.285156 0.140625 0.304688 0.132812 0.328125 0.125 C 0.347656 0.113281 0.363281 0.101562 0.375 0.09375 C 0.382812 0.0703125 0.390625 0.0507812 0.390625 0.03125 C 0.398438 0.0195312 0.40625 0 0.40625 -0.03125 L 0.40625 -0.0625 C 0.363281 -0.0195312 0.316406 0 0.265625 0 C 0.210938 0 0.171875 -0.0078125 0.140625 -0.03125 C 0.109375 -0.0507812 0.0820312 -0.0820312 0.0625 -0.125 C 0.0390625 -0.164062 0.03125 -0.210938 0.03125 -0.265625 C 0.03125 -0.316406 0.0390625 -0.363281 0.0625 -0.40625 C 0.0820312 -0.445312 0.109375 -0.476562 0.140625 -0.5 C 0.171875 -0.519531 0.210938 -0.53125 0.265625 -0.53125 Z M 0.125 -0.265625 C 0.125 -0.203125 0.132812 -0.15625 0.15625 -0.125 C 0.1875 -0.09375 0.222656 -0.078125 0.265625 -0.078125 C 0.285156 -0.078125 0.304688 -0.0820312 0.328125 -0.09375 C 0.359375 -0.101562 0.378906 -0.125 0.390625 -0.15625 C 0.398438 -0.1875 0.40625 -0.222656 0.40625 -0.265625 C 0.40625 -0.328125 0.390625 -0.375 0.359375 -0.40625 C 0.335938 -0.4375 0.304688 -0.453125 0.265625 -0.453125 C 0.222656 -0.453125 0.1875 -0.4375 0.15625 -0.40625 C 0.132812 -0.375 0.125 -0.328125 0.125 -0.265625 Z M 0.125 -0.265625 "/></g></g></g><g fill="#ffffff" fill-opacity="1"><g transform="translate(32.668722, 1.816667)"><g><path d="M 0.21875 -0.21875 C 0.226562 -0.175781 0.238281 -0.132812 0.25 -0.09375 C 0.257812 -0.132812 0.273438 -0.171875 0.296875 -0.203125 L 0.40625 -0.515625 L 0.484375 -0.515625 L 0.296875 0.015625 C 0.273438 0.0546875 0.253906 0.0859375 0.234375 0.109375 C 0.222656 0.140625 0.207031 0.160156 0.1875 0.171875 C 0.175781 0.191406 0.15625 0.203125 0.125 0.203125 C 0.101562 0.203125 0.0820312 0.203125 0.0625 0.203125 L 0.046875 0.109375 C 0.0664062 0.117188 0.0859375 0.125 0.109375 0.125 C 0.128906 0.125 0.144531 0.117188 0.15625 0.109375 C 0.164062 0.109375 0.171875 0.0976562 0.171875 0.078125 C 0.179688 0.0664062 0.191406 0.0507812 0.203125 0.03125 L 0.21875 0 L 0.015625 -0.515625 L 0.109375 -0.515625 Z M 0.21875 -0.21875 "/></g></g></g><g fill="#ffffff" fill-opacity="1"><g transform="translate(33.168726, 1.816667)"><g><path d="M 0.1875 0 L 0.09375 0 L 0.09375 -0.09375 L 0.1875 -0.09375 Z M 0.1875 0 "/></g></g></g><g fill="#ffffff" fill-opacity="1"><g transform="translate(33.446728, 1.816667)"><g><path d="M 0.28125 -0.53125 C 0.332031 -0.53125 0.375 -0.515625 0.40625 -0.484375 C 0.445312 -0.453125 0.472656 -0.410156 0.484375 -0.359375 L 0.390625 -0.359375 C 0.390625 -0.390625 0.378906 -0.410156 0.359375 -0.421875 C 0.335938 -0.441406 0.3125 -0.453125 0.28125 -0.453125 C 0.226562 -0.453125 0.1875 -0.4375 0.15625 -0.40625 C 0.132812 -0.375 0.125 -0.328125 0.125 -0.265625 C 0.125 -0.191406 0.132812 -0.140625 0.15625 -0.109375 C 0.1875 -0.078125 0.226562 -0.0625 0.28125 -0.0625 C 0.3125 -0.0625 0.335938 -0.0703125 0.359375 -0.09375 C 0.378906 -0.113281 0.394531 -0.144531 0.40625 -0.1875 L 0.484375 -0.171875 C 0.484375 -0.117188 0.460938 -0.0703125 0.421875 -0.03125 C 0.378906 0 0.332031 0.015625 0.28125 0.015625 C 0.195312 0.015625 0.132812 -0.0078125 0.09375 -0.0625 C 0.0507812 -0.113281 0.03125 -0.179688 0.03125 -0.265625 C 0.03125 -0.347656 0.0507812 -0.410156 0.09375 -0.453125 C 0.144531 -0.503906 0.207031 -0.53125 0.28125 -0.53125 Z M 0.28125 -0.53125 "/></g></g></g><g fill="#ffffff" fill-opacity="1"><g transform="translate(33.946732, 1.816667)"><g><path d="M 0.28125 -0.53125 C 0.320312 -0.53125 0.359375 -0.519531 0.390625 -0.5 C 0.429688 -0.488281 0.460938 -0.460938 0.484375 -0.421875 C 0.503906 -0.378906 0.515625 -0.328125 0.515625 -0.265625 C 0.515625 -0.203125 0.503906 -0.148438 0.484375 -0.109375 C 0.460938 -0.0664062 0.429688 -0.0351562 0.390625 -0.015625 C 0.359375 0.00390625 0.320312 0.015625 0.28125 0.015625 C 0.207031 0.015625 0.148438 -0.00390625 0.109375 -0.046875 C 0.0546875 -0.0976562 0.03125 -0.171875 0.03125 -0.265625 C 0.03125 -0.316406 0.0390625 -0.363281 0.0625 -0.40625 C 0.0820312 -0.445312 0.109375 -0.476562 0.140625 -0.5 C 0.179688 -0.519531 0.226562 -0.53125 0.28125 -0.53125 Z M 0.125 -0.265625 C 0.125 -0.203125 0.132812 -0.148438 0.15625 -0.109375 C 0.1875 -0.078125 0.226562 -0.0625 0.28125 -0.0625 C 0.320312 -0.0625 0.359375 -0.078125 0.390625 -0.109375 C 0.421875 -0.140625 0.4375 -0.191406 0.4375 -0.265625 C 0.4375 -0.316406 0.421875 -0.359375 0.390625 -0.390625 C 0.359375 -0.429688 0.320312 -0.453125 0.28125 -0.453125 C 0.226562 -0.453125 0.1875 -0.4375 0.15625 -0.40625 C 0.132812 -0.375 0.125 -0.328125 0.125 -0.265625 Z M 0.125 -0.265625 "/></g></g></g><g fill="#ffffff" fill-opacity="1"><g transform="translate(34.502736, 1.816667)"><g><path d="M 0.296875 -0.53125 C 0.335938 -0.53125 0.367188 -0.519531 0.390625 -0.5 C 0.421875 -0.488281 0.441406 -0.46875 0.453125 -0.4375 C 0.472656 -0.46875 0.492188 -0.488281 0.515625 -0.5 C 0.535156 -0.519531 0.566406 -0.53125 0.609375 -0.53125 C 0.660156 -0.53125 0.695312 -0.515625 0.71875 -0.484375 C 0.75 -0.453125 0.765625 -0.410156 0.765625 -0.359375 L 0.765625 0 L 0.6875 0 L 0.6875 -0.328125 C 0.6875 -0.367188 0.675781 -0.398438 0.65625 -0.421875 C 0.644531 -0.441406 0.625 -0.453125 0.59375 -0.453125 C 0.550781 -0.453125 0.519531 -0.4375 0.5 -0.40625 C 0.476562 -0.382812 0.46875 -0.351562 0.46875 -0.3125 L 0.46875 0 L 0.375 0 L 0.375 -0.34375 C 0.375 -0.375 0.363281 -0.398438 0.34375 -0.421875 C 0.332031 -0.441406 0.3125 -0.453125 0.28125 -0.453125 C 0.257812 -0.453125 0.234375 -0.441406 0.203125 -0.421875 C 0.179688 -0.410156 0.164062 -0.394531 0.15625 -0.375 C 0.15625 -0.351562 0.15625 -0.320312 0.15625 -0.28125 L 0.15625 0 L 0.0625 0 L 0.0625 -0.515625 L 0.140625 -0.515625 L 0.140625 -0.453125 C 0.160156 -0.472656 0.179688 -0.488281 0.203125 -0.5 C 0.234375 -0.519531 0.265625 -0.53125 0.296875 -0.53125 Z M 0.296875 -0.53125 "/></g></g></g></svg>