<svg xmlns="http://www.w3.org/2000/svg" xmlns:xlink="http://www.w3.org/1999/xlink" width="80" zoomAndPan="magnify" viewBox="0 0 60 60" height="80" preserveAspectRatio="xMidYMid meet" version="1.0"><defs><clipPath id="23ea4a8ba1"><path d="M 30 2.851562 L 33.75 2.851562 L 33.75 6.601562 L 30 6.601562 Z M 30 2.851562 " clip-rule="nonzero"/></clipPath></defs><g clip-path="url(#23ea4a8ba1)"><path fill="#222222" d="M 30 2.851562 L 33.75 2.851562 L 33.75 6.601562 L 30 6.601562 Z M 30 2.851562 " fill-opacity="1" fill-rule="nonzero"/></g><path fill="#111827" d="M 30 0 C 13.433594 0 0 13.433594 0 30 C 0 43.253906 8.59375 54.5 20.515625 58.46875 C 22.015625 58.746094 22.5 57.816406 22.5 57.023438 L 22.5 51.441406 C 14.15625 53.253906 12.417969 47.898438 12.417969 47.898438 C 11.050781 44.433594 9.085938 43.511719 9.085938 43.511719 C 6.363281 41.648438 9.292969 41.6875 9.292969 41.6875 C 12.304688 41.898438 13.890625 44.78125 13.890625 44.78125 C 16.566406 49.363281 20.90625 48.039062 22.621094 47.273438 C 22.886719 45.335938 23.664062 44.011719 24.523438 43.261719 C 17.863281 42.5 10.859375 39.925781 10.859375 28.433594 C 10.859375 25.15625 12.03125 22.484375 13.949219 20.382812 C 13.636719 19.625 12.609375 16.574219 14.238281 12.441406 C 14.238281 12.441406 16.761719 11.636719 22.492188 15.515625 C 24.886719 14.851562 27.449219 14.519531 30 14.507812 C 32.550781 14.519531 35.117188 14.851562 37.515625 15.515625 C 43.242188 11.636719 45.757812 12.441406 45.757812 12.441406 C 47.390625 16.574219 46.363281 19.628906 46.050781 20.382812 C 47.976562 22.484375 49.140625 25.160156 49.140625 28.433594 C 49.140625 39.957031 42.121094 42.496094 35.441406 43.238281 C 36.515625 44.167969 37.5 45.992188 37.5 48.792969 L 37.5 57.023438 C 37.5 57.824219 37.980469 58.761719 39.503906 58.464844 C 51.414062 54.492188 60 43.25 60 30 C 60 13.433594 46.566406 0 30 0 Z M 30 0 " fill-opacity="1" fill-rule="nonzero"/></svg>