<svg xmlns="http://www.w3.org/2000/svg" xmlns:xlink="http://www.w3.org/1999/xlink" width="80" zoomAndPan="magnify" viewBox="0 0 60 60" height="80" preserveAspectRatio="xMidYMid meet" version="1.0"><path fill="#000000" d="M 29.203125 58.410156 C 45.285156 58.410156 58.410156 45.386719 58.410156 29.203125 C 58.410156 13.023438 45.285156 0 29.203125 0 C 13.125 0 0 13.023438 0 29.203125 C 0 45.386719 13.125 58.410156 29.203125 58.410156 Z M 33.976562 44.222656 C 37.246094 43.164062 40.085938 41.074219 42.074219 38.265625 L 29.0625 29.0625 L 42.789062 20.964844 C 41.042969 18.003906 38.382812 15.683594 35.210938 14.359375 C 32.039062 13.03125 28.519531 12.765625 25.183594 13.605469 C 21.847656 14.441406 18.871094 16.335938 16.703125 19 C 14.53125 21.667969 13.28125 24.96875 13.136719 28.402344 C 12.996094 31.839844 13.96875 35.230469 15.914062 38.066406 C 17.855469 40.90625 20.664062 43.039062 23.921875 44.148438 C 27.175781 45.257812 30.703125 45.285156 33.976562 44.222656 Z M 33.976562 44.222656 " fill-opacity="1" fill-rule="evenodd"/><path fill="#000000" d="M 60 30 C 60 30.984375 59.953125 31.960938 59.855469 32.941406 C 59.757812 33.917969 59.617188 34.890625 59.421875 35.851562 C 59.230469 36.816406 58.992188 37.769531 58.707031 38.707031 C 58.421875 39.648438 58.09375 40.574219 57.714844 41.480469 C 57.339844 42.386719 56.921875 43.273438 56.457031 44.140625 C 55.996094 45.007812 55.488281 45.851562 54.945312 46.667969 C 54.398438 47.484375 53.8125 48.273438 53.191406 49.03125 C 52.566406 49.792969 51.90625 50.519531 51.214844 51.214844 C 50.519531 51.90625 49.792969 52.566406 49.03125 53.191406 C 48.273438 53.8125 47.484375 54.398438 46.667969 54.945312 C 45.851562 55.488281 45.007812 55.996094 44.140625 56.457031 C 43.273438 56.921875 42.386719 57.339844 41.480469 57.714844 C 40.574219 58.09375 39.648438 58.421875 38.707031 58.707031 C 37.769531 58.992188 36.816406 59.230469 35.851562 59.421875 C 34.890625 59.617188 33.917969 59.757812 32.941406 59.855469 C 31.960938 59.953125 30.984375 60 30 60 C 29.015625 60 28.039062 59.953125 27.058594 59.855469 C 26.082031 59.757812 25.109375 59.617188 24.148438 59.421875 C 23.183594 59.230469 22.230469 58.992188 21.292969 58.707031 C 20.351562 58.421875 19.425781 58.09375 18.519531 57.714844 C 17.613281 57.339844 16.726562 56.921875 15.859375 56.457031 C 14.992188 55.996094 14.148438 55.488281 13.332031 54.945312 C 12.515625 54.398438 11.726562 53.8125 10.96875 53.191406 C 10.207031 52.566406 9.480469 51.90625 8.785156 51.214844 C 8.09375 50.519531 7.433594 49.792969 6.808594 49.03125 C 6.1875 48.273438 5.601562 47.484375 5.054688 46.667969 C 4.511719 45.851562 4.003906 45.007812 3.542969 44.140625 C 3.078125 43.273438 2.660156 42.386719 2.285156 41.480469 C 1.90625 40.574219 1.578125 39.648438 1.292969 38.707031 C 1.007812 37.769531 0.769531 36.816406 0.578125 35.851562 C 0.382812 34.890625 0.242188 33.917969 0.144531 32.941406 C 0.046875 31.960938 0 30.984375 0 30 C 0 29.015625 0.046875 28.039062 0.144531 27.058594 C 0.242188 26.082031 0.382812 25.109375 0.578125 24.148438 C 0.769531 23.183594 1.007812 22.230469 1.292969 21.292969 C 1.578125 20.351562 1.90625 19.425781 2.285156 18.519531 C 2.660156 17.613281 3.078125 16.726562 3.542969 15.859375 C 4.003906 14.992188 4.511719 14.148438 5.054688 13.332031 C 5.601562 12.515625 6.1875 11.726562 6.808594 10.96875 C 7.433594 10.207031 8.09375 9.480469 8.785156 8.785156 C 9.480469 8.09375 10.207031 7.433594 10.96875 6.808594 C 11.726562 6.1875 12.515625 5.601562 13.332031 5.054688 C 14.148438 4.511719 14.992188 4.003906 15.859375 3.542969 C 16.726562 3.078125 17.613281 2.660156 18.519531 2.285156 C 19.425781 1.90625 20.351562 1.578125 21.292969 1.292969 C 22.230469 1.007812 23.183594 0.769531 24.148438 0.578125 C 25.109375 0.382812 26.082031 0.242188 27.058594 0.144531 C 28.039062 0.046875 29.015625 0 30 0 C 30.984375 0 31.960938 0.046875 32.941406 0.144531 C 33.917969 0.242188 34.890625 0.382812 35.851562 0.578125 C 36.816406 0.769531 37.769531 1.007812 38.707031 1.292969 C 39.648438 1.578125 40.574219 1.90625 41.480469 2.285156 C 42.386719 2.660156 43.273438 3.078125 44.140625 3.542969 C 45.007812 4.003906 45.851562 4.511719 46.667969 5.054688 C 47.484375 5.601562 48.273438 6.1875 49.03125 6.808594 C 49.792969 7.433594 50.519531 8.09375 51.214844 8.785156 C 51.90625 9.480469 52.566406 10.207031 53.191406 10.96875 C 53.8125 11.726562 54.398438 12.515625 54.945312 13.332031 C 55.488281 14.148438 55.996094 14.992188 56.457031 15.859375 C 56.921875 16.726562 57.339844 17.613281 57.714844 18.519531 C 58.09375 19.425781 58.421875 20.351562 58.707031 21.292969 C 58.992188 22.230469 59.230469 23.183594 59.421875 24.148438 C 59.613281 25.109375 59.757812 26.082031 59.855469 27.058594 C 59.953125 28.039062 60 29.015625 60 30 Z M 60 30 " fill-opacity="1" fill-rule="nonzero"/><path fill="#eaeaea" d="M 50.089844 17.0625 L 36.671875 27.695312 L 50.398438 38.59375 L 50.398438 18.335938 C 50.40625 17.882812 50.304688 17.460938 50.089844 17.0625 Z M 50.089844 17.0625 " fill-opacity="1" fill-rule="nonzero"/><path fill="#eaeaea" d="M 9.910156 17.0625 C 9.695312 17.460938 9.59375 17.882812 9.601562 18.335938 L 9.601562 38.59375 L 23.328125 27.695312 Z M 9.910156 17.0625 " fill-opacity="1" fill-rule="nonzero"/><path fill="#eaeaea" d="M 31.921875 31.464844 C 31.386719 31.960938 30.753906 32.203125 30.023438 32.183594 C 29.25 32.191406 28.578125 31.9375 28.007812 31.414062 L 24.886719 29.015625 L 9.601562 41.0625 L 9.601562 41.664062 C 9.601562 42.050781 9.671875 42.417969 9.820312 42.773438 C 9.96875 43.132812 10.179688 43.445312 10.449219 43.71875 C 10.722656 43.988281 11.035156 44.199219 11.394531 44.347656 C 11.75 44.496094 12.117188 44.566406 12.503906 44.566406 L 47.496094 44.566406 C 47.882812 44.566406 48.25 44.496094 48.605469 44.347656 C 48.964844 44.199219 49.277344 43.988281 49.550781 43.71875 C 49.820312 43.445312 50.03125 43.132812 50.179688 42.773438 C 50.328125 42.417969 50.398438 42.050781 50.398438 41.664062 L 50.398438 41.0625 L 35.113281 28.921875 Z M 31.921875 31.464844 " fill-opacity="1" fill-rule="nonzero"/><path fill="#eaeaea" d="M 26.398438 27.695312 L 29.230469 29.953125 C 29.425781 30.144531 29.65625 30.242188 29.929688 30.242188 C 30.199219 30.242188 30.433594 30.144531 30.625 29.953125 L 33.503906 27.550781 L 35.0625 26.328125 L 48.648438 15.550781 C 48.265625 15.378906 47.867188 15.292969 47.449219 15.289062 L 12.503906 15.289062 C 12.09375 15.289062 11.699219 15.378906 11.328125 15.550781 L 24.886719 26.398438 Z M 26.398438 27.695312 " fill-opacity="1" fill-rule="nonzero"/></svg>