<svg xmlns="http://www.w3.org/2000/svg" xmlns:xlink="http://www.w3.org/1999/xlink" width="80" zoomAndPan="magnify" viewBox="0 0 60 60" height="80" preserveAspectRatio="xMidYMid meet" version="1.0"><defs><clipPath id="7a2e7b04b4"><path d="M 32.101562 24.601562 L 36.75 24.601562 L 36.75 30 L 32.101562 30 Z M 32.101562 24.601562 " clip-rule="nonzero"/></clipPath></defs><g clip-path="url(#7a2e7b04b4)"><path fill="#111827" d="M 32.101562 24.601562 L 36.75 24.601562 L 36.75 30 L 32.101562 30 Z M 32.101562 24.601562 " fill-opacity="1" fill-rule="nonzero"/></g><path fill="#111827" d="M 29.996094 0 C 13.386719 0 -0.00390625 13.523438 -0.00390625 29.996094 C -0.00390625 46.601562 13.523438 59.996094 29.996094 59.996094 C 46.601562 59.996094 59.992188 46.46875 59.992188 29.996094 C 59.992188 13.523438 46.601562 0 29.996094 0 Z M 48.609375 44.460938 C 47.804688 47.140625 44.191406 51.023438 40.84375 51.023438 L 40.574219 50.890625 C 35.621094 50.621094 28.789062 45.933594 22.496094 38.300781 L 20.21875 35.488281 C 13.925781 27.855469 10.578125 20.355469 11.378906 15.535156 C 11.914062 12.050781 17.003906 9.238281 19.949219 9.238281 C 21.425781 9.238281 21.960938 9.910156 22.09375 10.445312 C 23.699219 13.390625 25.84375 18.480469 25.84375 20.355469 L 25.84375 20.621094 C 25.441406 21.558594 24.636719 22.097656 23.96875 22.496094 C 23.03125 23.035156 22.496094 23.433594 22.359375 24.371094 C 22.359375 24.640625 22.628906 26.113281 26.78125 31.203125 L 28.523438 33.34375 C 32.671875 38.300781 34.011719 38.835938 34.28125 38.835938 C 35.351562 38.96875 35.753906 38.566406 36.558594 37.765625 C 37.09375 37.09375 37.761719 36.425781 38.699219 36.292969 L 38.96875 36.292969 C 40.84375 36.691406 45.394531 39.640625 48.074219 41.917969 C 48.476562 42.050781 49.144531 42.71875 48.609375 44.460938 Z M 48.609375 44.460938 " fill-opacity="1" fill-rule="nonzero"/></svg>